<?xml version="1.0" standalone="no"?>
<!DOCTYPE svg PUBLIC "-//W3C//DTD SVG 20010904//EN"
 "http://www.w3.org/TR/2001/REC-SVG-20010904/DTD/svg10.dtd">
<svg version="1.0" xmlns="http://www.w3.org/2000/svg"
 width="1200.000000pt" height="1200.000000pt" viewBox="0 0 1200.000000 1200.000000"
 preserveAspectRatio="xMidYMid meet">
<metadata>
Created by potrace 1.11, written by Peter Selinger 2001-2013
</metadata>
<g transform="translate(0.000000,1200.000000) scale(0.100000,-0.100000)"
fill="#000000" stroke="none">
<path d="M0 6000 l0 -6000 6000 0 6000 0 0 6000 0 6000 -6000 0 -6000 0 0
-6000z m9511 1693 c40 -13 69 -32 110 -73 65 -65 84 -116 94 -252 l7 -86 46
-11 c87 -22 265 -83 356 -123 427 -187 668 -485 643 -790 -26 -310 -216 -539
-600 -723 -243 -117 -559 -201 -948 -250 -45 -6 -48 -8 -140 -128 -360 -467
-873 -807 -1420 -941 -261 -63 -200 -61 -1694 -61 -1268 0 -1367 1 -1470 18
-545 90 -1005 327 -1401 722 -406 405 -687 936 -808 1525 -49 243 -59 354 -60
670 -1 287 0 296 21 335 42 75 102 126 180 153 44 16 203 17 1853 22 993 3
2564 6 3491 8 1568 2 1690 1 1740 -15z m-910 -3848 c24 -9 63 -34 86 -57 96
-94 96 -242 0 -336 -80 -79 171 -72 -2717 -72 -2888 0 -2637 -7 -2717 72 -66
65 -88 151 -61 242 15 51 99 137 148 153 25 8 768 11 2626 12 2311 1 2596 -1
2635 -14z"/>
<path d="M9706 6857 c-2 -12 -12 -78 -21 -147 -30 -238 -95 -481 -190 -721
-30 -76 -58 -144 -61 -153 -8 -20 -9 -20 161 26 159 43 346 119 464 189 121
71 235 178 272 254 48 100 25 228 -56 309 -69 69 -299 183 -485 240 l-80 24
-4 -21z"/>
</g>
</svg>
