<?xml version="1.0" standalone="no"?>
<!DOCTYPE svg PUBLIC "-//W3C//DTD SVG 20010904//EN"
 "http://www.w3.org/TR/2001/REC-SVG-20010904/DTD/svg10.dtd">
<svg version="1.0" xmlns="http://www.w3.org/2000/svg"
 width="300.000000pt" height="300.000000pt" viewBox="0 0 300.000000 300.000000"
 preserveAspectRatio="xMidYMid meet">
<metadata>
Created by potrace 1.11, written by Peter Selinger 2001-2013
</metadata>
<g transform="translate(0.000000,300.000000) scale(0.100000,-0.100000)"
fill="#000000" stroke="none">
<path d="M0 1500 l0 -1500 1500 0 1500 0 0 1500 0 1500 -1500 0 -1500 0 0
-1500z m2229 484 c21 -23 40 -32 77 -38 92 -12 146 -36 199 -90 90 -90 107
-217 45 -348 -29 -62 -116 -142 -192 -178 -81 -38 -199 -68 -300 -76 -68 -6
-86 -12 -112 -34 -48 -41 -120 -88 -186 -121 l-59 -29 -294 0 c-199 0 -305 4
-328 12 -159 55 -331 223 -431 423 -67 132 -119 348 -104 428 7 39 40 73 76
80 14 2 375 4 803 3 l779 -1 27 -31z m-71 -1020 c49 -34 13 -101 -72 -133
-119 -44 -262 -56 -686 -56 -411 0 -529 9 -670 51 -93 28 -140 102 -88 138 20
14 108 16 758 16 650 0 738 -2 758 -16z"/>
<path d="M2246 1768 c-33 -125 -54 -186 -86 -253 -21 -44 -37 -81 -36 -82 1
-1 29 5 61 13 88 23 173 72 202 115 53 81 36 174 -38 203 -47 19 -98 21 -103
4z"/>
</g>
</svg>
